<?xml version="1.0" encoding="UTF-8" standalone="no"?>
<!-- Created with Inkscape (http://www.inkscape.org/) -->

<svg
   xmlns:dc="http://purl.org/dc/elements/1.1/"
   xmlns:cc="http://creativecommons.org/ns#"
   xmlns:rdf="http://www.w3.org/1999/02/22-rdf-syntax-ns#"
   xmlns:svg="http://www.w3.org/2000/svg"
   xmlns="http://www.w3.org/2000/svg"
   xmlns:sodipodi="http://sodipodi.sourceforge.net/DTD/sodipodi-0.dtd"
   xmlns:inkscape="http://www.inkscape.org/namespaces/inkscape"
   width="11in"
   height="8.5in"
   viewBox="0 0 11 8.5"
   version="1.1"
   id="SVGRoot"
   inkscape:version="0.92.5 (2060ec1f9f, 2020-04-08)"
   sodipodi:docname="health.svg"
   inkscape:export-filename="/home/jhuang/code/github.com/jhthenerd/cs-12/environment-ethics/images/health.png"
   inkscape:export-xdpi="96"
   inkscape:export-ydpi="96">
  <defs
     id="defs3713" />
  <sodipodi:namedview
     id="base"
     pagecolor="#ffffff"
     bordercolor="#666666"
     borderopacity="1.0"
     inkscape:pageopacity="0.0"
     inkscape:pageshadow="2"
     inkscape:zoom="0.7"
     inkscape:cx="267.43285"
     inkscape:cy="282.59374"
     inkscape:document-units="in"
     inkscape:current-layer="layer1"
     showgrid="false"
     inkscape:window-width="959"
     inkscape:window-height="1055"
     inkscape:window-x="2880"
     inkscape:window-y="0"
     inkscape:window-maximized="0" />
  <metadata
     id="metadata3716">
    <rdf:RDF>
      <cc:Work
         rdf:about="">
        <dc:format>image/svg+xml</dc:format>
        <dc:type
           rdf:resource="http://purl.org/dc/dcmitype/StillImage" />
        <dc:title></dc:title>
      </cc:Work>
    </rdf:RDF>
  </metadata>
  <g
     inkscape:label="Layer 1"
     inkscape:groupmode="layer"
     id="layer1">
    <g
       id="g4778"
       transform="matrix(0.00720209,0,0,0.00720209,0.21968842,4.8616128)">
      <path
         id="path4495"
         transform="translate(-229.66231,-213.02572)"
         d="m 341.17319,342.44851 a 122.0417,122.0417 0 0 1 10.10051,-38.51722 q 2.27961,-5.09249 5.01812,-9.96076 a 0.7438,0.7438 0 0 0 -1.28353,-0.75026 123.72825,123.72825 0 0 0 -13.7678,37.98231 q -1.03367,5.58356 -1.55378,11.24593 c -0.0881,0.95214 1.39893,0.94613 1.48648,0 z"
         inkscape:connector-curvature="0"
         style="fill:#e6e6e6" />
      <circle
         id="circle4497"
         r="9.4144001"
         cy="73.914398"
         cx="130.22983"
         style="fill:#e6e6e6" />
      <path
         id="path4499"
         transform="translate(-229.66231,-213.02572)"
         d="m 342.13622,342.69855 a 79.17409,79.17409 0 0 1 6.55267,-24.98792 q 1.47889,-3.30372 3.25549,-6.462 a 0.48254,0.48254 0 0 0 -0.83269,-0.48673 80.26843,80.26843 0 0 0 -8.93181,24.64089 q -0.67059,3.6223 -1.008,7.29576 c -0.0572,0.6177 0.90755,0.6138 0.96435,0 z"
         inkscape:connector-curvature="0"
         style="fill:#e6e6e6" />
      <circle
         id="circle4501"
         r="6.1075602"
         cy="93.661949"
         cx="124.61776"
         style="fill:#e6e6e6" />
      <path
         id="path4503"
         transform="translate(-229.66231,-213.02572)"
         d="m 340.91907,342.122 a 79.17418,79.17418 0 0 1 -10.20241,-23.73277 q -0.86592,-3.51453 -1.40763,-7.09749 a 0.48254,0.48254 0 0 0 -0.95593,0.12838 80.26861,80.26861 0 0 0 8.11306,24.92246 q 1.6992,3.26858 3.69253,6.37255 c 0.33485,0.5222 1.09311,-0.0742 0.76038,-0.59313 z"
         inkscape:connector-curvature="0"
         style="fill:#e6e6e6" />
      <circle
         id="circle4505"
         r="6.1075602"
         cy="93.233223"
         cx="98.683113"
         style="fill:#e6e6e6" />
      <path
         id="path4507"
         style="isolation:isolate;fill:#f2f2f2"
         transform="translate(-229.66231,-213.02572)"
         d="m 322.16929,347.52572 v -12 a 4.50508,4.50508 0 0 1 4.5,-4.5 h 28 a 4.50508,4.50508 0 0 1 4.5,4.5 v 12 a 4.50508,4.50508 0 0 1 -4.5,4.5 h -28 a 4.50508,4.50508 0 0 1 -4.5,-4.5 z"
         inkscape:connector-curvature="0" />
      <path
         id="path4509"
         style="isolation:isolate;fill:#f2f2f2"
         transform="translate(-229.66231,-213.02572)"
         d="m 353.66929,271.02572 h -12 a 4.50508,4.50508 0 0 1 -4.5,-4.5 v -49 a 4.50508,4.50508 0 0 1 4.5,-4.5 h 12 a 4.50508,4.50508 0 0 1 4.5,4.5 v 49 a 4.50508,4.50508 0 0 1 -4.5,4.5 z"
         inkscape:connector-curvature="0" />
      <rect
         id="rect4511"
         height="4"
         width="20"
         y="9.5"
         x="108.00698"
         style="fill:#cccccc" />
      <rect
         id="rect4513"
         height="4"
         width="20"
         y="40.5"
         x="108.00698"
         style="fill:#cccccc" />
      <path
         id="path4515"
         style="isolation:isolate;fill:#f2f2f2"
         transform="translate(-229.66231,-213.02572)"
         d="m 383.66929,271.02572 h -12 a 4.50508,4.50508 0 0 1 -4.5,-4.5 v -49 a 4.50508,4.50508 0 0 1 4.5,-4.5 h 12 a 4.50508,4.50508 0 0 1 4.5,4.5 v 49 a 4.50508,4.50508 0 0 1 -4.5,4.5 z"
         inkscape:connector-curvature="0" />
      <rect
         id="rect4517"
         height="4"
         width="20"
         y="9.5"
         x="138.00697"
         style="fill:#cccccc" />
      <rect
         id="rect4519"
         height="4"
         width="20"
         y="40.5"
         x="138.00697"
         style="fill:#cccccc" />
      <path
         id="path4521"
         style="isolation:isolate;fill:#f2f2f2"
         transform="translate(-229.66231,-213.02572)"
         d="m 413.66929,271.02572 h -12 a 4.50508,4.50508 0 0 1 -4.5,-4.5 v -49 a 4.50508,4.50508 0 0 1 4.5,-4.5 h 12 a 4.50508,4.50508 0 0 1 4.5,4.5 v 49 a 4.50508,4.50508 0 0 1 -4.5,4.5 z"
         inkscape:connector-curvature="0" />
      <rect
         id="rect4523"
         height="4"
         width="20"
         y="9.5"
         x="168.00697"
         style="fill:#cccccc" />
      <rect
         id="rect4525"
         height="4"
         width="20"
         y="40.5"
         x="168.00697"
         style="fill:#cccccc" />
      <path
         id="path4527"
         style="isolation:isolate;fill:#f2f2f2"
         transform="translate(-229.66231,-213.02572)"
         d="m 429.66929,352.02572 h -12 a 4.50508,4.50508 0 0 1 -4.5,-4.5 v -49 a 4.50508,4.50508 0 0 1 4.5,-4.5 h 12 a 4.50508,4.50508 0 0 1 4.5,4.5 v 49 a 4.50508,4.50508 0 0 1 -4.5,4.5 z"
         inkscape:connector-curvature="0" />
      <rect
         id="rect4529"
         height="4"
         width="20"
         y="90.5"
         x="184.00697"
         style="fill:#cccccc" />
      <rect
         id="rect4531"
         height="4"
         width="20"
         y="121.5"
         x="184.00697"
         style="fill:#cccccc" />
      <path
         id="path4533"
         style="isolation:isolate;fill:#f2f2f2"
         transform="translate(-229.66231,-213.02572)"
         d="m 459.66929,352.02572 h -12 a 4.50508,4.50508 0 0 1 -4.5,-4.5 v -49 a 4.50508,4.50508 0 0 1 4.5,-4.5 h 12 a 4.50508,4.50508 0 0 1 4.5,4.5 v 49 a 4.50508,4.50508 0 0 1 -4.5,4.5 z"
         inkscape:connector-curvature="0" />
      <rect
         id="rect4535"
         height="4"
         width="20"
         y="90.5"
         x="214.00697"
         style="fill:#cccccc" />
      <rect
         id="rect4537"
         height="4"
         width="20"
         y="121.5"
         x="214.00697"
         style="fill:#cccccc" />
      <path
         id="path4539"
         style="isolation:isolate;fill:#f2f2f2"
         transform="translate(-229.66231,-213.02572)"
         d="m 489.66929,352.02572 h -12 a 4.50508,4.50508 0 0 1 -4.5,-4.5 v -49 a 4.50508,4.50508 0 0 1 4.5,-4.5 h 12 a 4.50508,4.50508 0 0 1 4.5,4.5 v 49 a 4.50508,4.50508 0 0 1 -4.5,4.5 z"
         inkscape:connector-curvature="0" />
      <rect
         id="rect4541"
         height="4"
         width="20"
         y="90.5"
         x="244.00697"
         style="fill:#cccccc" />
      <rect
         id="rect4543"
         height="4"
         width="20"
         y="121.5"
         x="244.00697"
         style="fill:#cccccc" />
      <path
         id="path4545"
         style="isolation:isolate;fill:#f2f2f2"
         transform="translate(-229.66231,-213.02572)"
         d="m 350.66929,433.02572 h -12 a 4.50508,4.50508 0 0 1 -4.5,-4.5 v -49 a 4.50508,4.50508 0 0 1 4.5,-4.5 h 12 a 4.50508,4.50508 0 0 1 4.5,4.5 v 49 a 4.50508,4.50508 0 0 1 -4.5,4.5 z"
         inkscape:connector-curvature="0" />
      <rect
         id="rect4547"
         height="4"
         width="20"
         y="171.5"
         x="105.00698"
         style="fill:#cccccc" />
      <rect
         id="rect4549"
         height="4"
         width="20"
         y="202.5"
         x="105.00698"
         style="fill:#cccccc" />
      <path
         id="path4551"
         style="isolation:isolate;fill:#f2f2f2"
         transform="translate(-229.66231,-213.02572)"
         d="m 380.66929,433.02572 h -12 a 4.50508,4.50508 0 0 1 -4.5,-4.5 v -49 a 4.50508,4.50508 0 0 1 4.5,-4.5 h 12 a 4.50508,4.50508 0 0 1 4.5,4.5 v 49 a 4.50508,4.50508 0 0 1 -4.5,4.5 z"
         inkscape:connector-curvature="0" />
      <rect
         id="rect4553"
         height="4"
         width="20"
         y="171.5"
         x="135.00697"
         style="fill:#cccccc" />
      <rect
         id="rect4555"
         height="4"
         width="20"
         y="202.5"
         x="135.00697"
         style="fill:#cccccc" />
      <path
         id="path4557"
         style="isolation:isolate;fill:#f2f2f2"
         transform="translate(-229.66231,-213.02572)"
         d="m 410.66929,433.02572 h -12 a 4.50508,4.50508 0 0 1 -4.5,-4.5 v -49 a 4.50508,4.50508 0 0 1 4.5,-4.5 h 12 a 4.50508,4.50508 0 0 1 4.5,4.5 v 49 a 4.50508,4.50508 0 0 1 -4.5,4.5 z"
         inkscape:connector-curvature="0" />
      <rect
         id="rect4559"
         height="4"
         width="20"
         y="171.5"
         x="165.00697"
         style="fill:#cccccc" />
      <rect
         id="rect4561"
         height="4"
         width="20"
         y="202.5"
         x="165.00697"
         style="fill:#cccccc" />
      <path
         id="path4563"
         style="isolation:isolate;fill:#f2f2f2"
         transform="translate(-229.66231,-213.02572)"
         d="m 443.66929,271.02572 h -12 a 4.50508,4.50508 0 0 1 -4.5,-4.5 v -49 a 4.50508,4.50508 0 0 1 4.5,-4.5 h 12 a 4.50508,4.50508 0 0 1 4.5,4.5 v 49 a 4.50508,4.50508 0 0 1 -4.5,4.5 z"
         inkscape:connector-curvature="0" />
      <rect
         id="rect4565"
         height="4"
         width="20"
         y="9.5"
         x="198.00697"
         style="fill:#cccccc" />
      <rect
         id="rect4567"
         height="4"
         width="20"
         y="40.5"
         x="198.00697"
         style="fill:#cccccc" />
      <path
         id="path4569"
         style="isolation:isolate;fill:#f2f2f2"
         transform="translate(-229.66231,-213.02572)"
         d="m 473.66929,271.02572 h -12 a 4.50508,4.50508 0 0 1 -4.5,-4.5 v -49 a 4.50508,4.50508 0 0 1 4.5,-4.5 h 12 a 4.50508,4.50508 0 0 1 4.5,4.5 v 49 a 4.50508,4.50508 0 0 1 -4.5,4.5 z"
         inkscape:connector-curvature="0" />
      <rect
         id="rect4571"
         height="4"
         width="20"
         y="9.5"
         x="228.00697"
         style="fill:#cccccc" />
      <rect
         id="rect4573"
         height="4"
         width="20"
         y="40.5"
         x="228.00697"
         style="fill:#cccccc" />
      <path
         id="path4575"
         style="isolation:isolate;fill:#f2f2f2"
         transform="translate(-229.66231,-213.02572)"
         d="m 503.66929,271.02572 h -12 a 4.50508,4.50508 0 0 1 -4.5,-4.5 v -49 a 4.50508,4.50508 0 0 1 4.5,-4.5 h 12 a 4.50508,4.50508 0 0 1 4.5,4.5 v 49 a 4.50508,4.50508 0 0 1 -4.5,4.5 z"
         inkscape:connector-curvature="0" />
      <rect
         id="rect4577"
         height="4"
         width="20"
         y="9.5"
         x="258.00699"
         style="fill:#cccccc" />
      <rect
         id="rect4579"
         height="4"
         width="20"
         y="40.5"
         x="258.00699"
         style="fill:#cccccc" />
      <path
         id="path4581"
         style="isolation:isolate;fill:#f2f2f2"
         transform="translate(-229.66231,-213.02572)"
         d="m 533.66929,271.02572 h -12 a 4.50508,4.50508 0 0 1 -4.5,-4.5 v -49 a 4.50508,4.50508 0 0 1 4.5,-4.5 h 12 a 4.50508,4.50508 0 0 1 4.5,4.5 v 49 a 4.50508,4.50508 0 0 1 -4.5,4.5 z"
         inkscape:connector-curvature="0" />
      <rect
         id="rect4583"
         height="4"
         width="20"
         y="9.5"
         x="288.00699"
         style="fill:#cccccc" />
      <rect
         id="rect4585"
         height="4"
         width="20"
         y="40.5"
         x="288.00699"
         style="fill:#cccccc" />
      <path
         id="path4587"
         transform="translate(-229.66231,-213.02572)"
         d="m 578.61024,272.52572 h -285 a 1,1 0 0 1 0,-2 h 285 a 1,1 0 0 1 0,2 z"
         inkscape:connector-curvature="0"
         style="fill:#cccccc" />
      <path
         id="path4589"
         transform="translate(-229.66231,-213.02572)"
         d="m 578.61024,353.52572 h -285 a 1,1 0 0 1 0,-2 h 285 a 1,1 0 0 1 0,2 z"
         inkscape:connector-curvature="0"
         style="fill:#cccccc" />
      <path
         id="path4591"
         transform="translate(-229.66231,-213.02572)"
         d="m 578.61024,434.52572 h -285 a 1,1 0 0 1 0,-2 h 285 a 1,1 0 0 1 0,2 z"
         inkscape:connector-curvature="0"
         style="fill:#cccccc" />
      <path
         id="path4593"
         transform="translate(-229.66231,-213.02572)"
         d="m 561.73228,591.508 c 0,-7.732 -29.10156,-14 -65,-14 -35.89844,0 -65,6.268 -65,14 0,4.95545 11.96436,9.30622 30,11.79432 V 680.008 a 6.5,6.5 0 0 0 13,0 v -75.324 c 6.87207,0.53241 14.27686,0.824 22,0.824 7.72314,0 15.12793,-0.29162 22,-0.824 v 75.324 a 6.5,6.5 0 0 0 13,0 v -76.70568 c 18.03565,-2.4881 30,-6.83887 30,-11.79432 z"
         inkscape:connector-curvature="0"
         style="fill:#cccccc" />
      <polygon
         id="polygon4595"
         points="319.563,460.906 331.823,460.906 337.655,413.618 319.561,413.618 "
         style="fill:#a0616a" />
      <path
         id="path4597"
         transform="rotate(179.99738,451.03506,571.35623)"
         d="m 546.59844,670.42825 h 38.53073 v 14.88687 H 561.4853 a 14.88686,14.88686 0 0 1 -14.88686,-14.88686 v 0 z"
         inkscape:connector-curvature="0"
         style="fill:#2f2e41" />
      <polygon
         id="polygon4599"
         points="338.701,454.064 350.398,450.393 341.806,403.528 324.542,408.945 "
         style="fill:#a0616a" />
      <path
         id="path4601"
         transform="rotate(162.57738,486.90693,541.75961)"
         d="m 566.15243,658.42388 h 38.53073 v 14.88687 h -23.64388 a 14.88686,14.88686 0 0 1 -14.88686,-14.88686 v 0 z"
         inkscape:connector-curvature="0"
         style="fill:#2f2e41" />
      <path
         id="path4603"
         transform="translate(-229.66231,-213.02572)"
         d="m 560.16112,645.32445 -22.42725,-58.87109 c -5.03149,1.18164 -47.22656,10.51855 -61.35889,-4.52832 -4.84326,-5.15723 -5.78784,-12.62891 -2.80761,-22.208 l 8.24756,-10.36426 0.25634,0.0137 c 3.11841,0.16406 76.43531,4.27344 81.46119,26.38867 4.23754,18.64454 11.97656,53.40528 14.24731,63.61524 a 4.51573,4.51573 0 0 1 -2.814,5.18359 l -9.01928,3.38184 a 4.46228,4.46228 0 0 1 -1.572,0.28613 4.51293,4.51293 0 0 1 -4.21337,-2.89747 z"
         inkscape:connector-curvature="0"
         style="fill:#2f2e41" />
      <path
         id="path4605"
         transform="translate(-229.66231,-213.02572)"
         d="m 547.16112,652.32445 -22.42725,-58.87109 c -5.03174,1.18164 -47.22656,10.51757 -61.35889,-4.52832 -4.84326,-5.15723 -5.78784,-12.62891 -2.80761,-22.208 l 8.24756,-10.36426 0.25634,0.0137 c 3.11841,0.16406 76.43531,4.27344 81.46119,26.38867 4.23754,18.64454 11.97656,53.40528 14.24731,63.61524 a 4.51573,4.51573 0 0 1 -2.814,5.18359 l -9.01928,3.38184 a 4.46228,4.46228 0 0 1 -1.572,0.28613 4.51293,4.51293 0 0 1 -4.21337,-2.89747 z"
         inkscape:connector-curvature="0"
         style="fill:#2f2e41" />
      <path
         id="path4607"
         transform="translate(-229.66231,-213.02572)"
         d="m 577.46925,511.20192 a 10.52657,10.52657 0 0 0 -0.88488,1.40152 l -49.32026,5.19623 -7.09959,-9.734 -16.09071,8.79449 13.94447,23.62125 60.48739,-15.42252 a 10.49579,10.49579 0 1 0 -1.03642,-13.857 z"
         inkscape:connector-curvature="0"
         style="fill:#a0616a" />
      <path
         id="path4609"
         transform="translate(-229.66231,-213.02572)"
         d="m 460.25023,569.82543 a 4.50694,4.50694 0 0 1 -1.81861,-4.34864 c 2.78248,-18.34277 -0.41894,-44.61914 -3.59472,-63.43261 a 24.79543,24.79543 0 0 1 27.55932,-28.76172 79.86459,79.86459 0 0 1 9.91285,1.9541 v 0 a 24.59626,24.59626 0 0 1 18.582,24.46777 c -0.47486,18.1543 3.21142,40.80567 4.81836,49.70117 a 4.51862,4.51862 0 0 1 -0.83374,3.51075 4.39229,4.39229 0 0 1 -3.09546,1.75 c -17.80811,1.81738 -37.01221,10.50195 -46.87451,15.5166 a 4.50062,4.50062 0 0 1 -2.04956,0.501 4.42884,4.42884 0 0 1 -2.60593,-0.85842 z"
         inkscape:connector-curvature="0"
         style="fill:#ae0d45" />
      <path
         id="path4611"
         transform="translate(-229.66231,-213.02572)"
         d="m 508.321,522.5139 a 4.47083,4.47083 0 0 1 -2.47363,-2.39746 l -9.9314,-22.94238 a 11.49973,11.49973 0 1 1 21.10718,-9.13574 l 9.93164,22.94238 a 4.5057,4.5057 0 0 1 -2.342,5.917 l -12.8479,5.56153 a 4.46857,4.46857 0 0 1 -3.44385,0.0547 z"
         inkscape:connector-curvature="0"
         style="fill:#ae0d45" />
      <path
         id="path4613"
         transform="translate(-229.66231,-213.02572)"
         d="m 530.46925,509.20192 a 10.52657,10.52657 0 0 0 -0.88488,1.40152 l -49.32026,5.19623 -7.09959,-9.734 -16.09071,8.79449 13.94447,23.62125 60.48739,-15.42252 a 10.49579,10.49579 0 1 0 -1.03642,-13.857 z"
         inkscape:connector-curvature="0"
         style="fill:#a0616a" />
      <path
         id="path4615"
         transform="translate(-229.66231,-213.02572)"
         d="m 461.321,523.5139 a 4.47083,4.47083 0 0 1 -2.47363,-2.39746 l -9.9314,-22.94238 a 11.49973,11.49973 0 1 1 21.10718,-9.13574 l 9.93164,22.94238 a 4.5057,4.5057 0 0 1 -2.342,5.917 l -12.8479,5.56153 a 4.46857,4.46857 0 0 1 -3.44385,0.0547 z"
         inkscape:connector-curvature="0"
         style="fill:#ae0d45" />
      <circle
         id="circle4617"
         r="24.561029"
         cy="227.89093"
         cx="250.90622"
         style="fill:#a0616a" />
      <path
         id="path4619"
         transform="translate(-229.66231,-213.02572)"
         d="m 463.008,457.77336 a 2.13481,2.13481 0 0 1 1.85636,-2.81906 4.93049,4.93049 0 0 1 3.4761,1.715 13.83414,13.83414 0 0 0 3.07115,2.63711 c 1.18812,0.59889 2.79953,0.51354 3.47686,-0.62825 0.636,-1.0722 0.20022,-2.508 -0.18483,-3.75346 a 36.90711,36.90711 0 0 1 -1.62991,-9.77 c -0.11092,-3.70031 0.41115,-7.562 2.45972,-10.44806 2.64387,-3.72476 7.37142,-5.13883 11.84544,-5.03631 4.47402,0.10252 8.87547,1.48363 13.30714,2.35666 1.52991,0.30139 3.32825,0.45549 4.35152,-0.73025 1.08805,-1.26082 0.68844,-3.3014 0.22563,-5.00376 -1.20094,-4.41743 -2.475,-8.98461 -5.26525,-12.55225 a 18.89838,18.89838 0 0 0 -12.06081,-6.79013 28.93848,28.93848 0 0 0 -13.46236,1.52838 36.09622,36.09622 0 0 0 -17.68285,12.3186 29.23591,29.23591 0 0 0 -5.57809,21.60019 26.66717,26.66717 0 0 0 9.88579,16.85462 z"
         inkscape:connector-curvature="0"
         style="fill:#2f2e41" />
      <path
         id="path4621"
         transform="translate(-229.66231,-213.02572)"
         d="m 369.22831,516.90206 a 122.0417,122.0417 0 0 1 10.10051,-38.51722 q 2.27961,-5.09249 5.01812,-9.96076 a 0.7438,0.7438 0 0 0 -1.28353,-0.75026 123.72825,123.72825 0 0 0 -13.7678,37.98231 q -1.03368,5.58355 -1.55378,11.24593 c -0.0881,0.95214 1.39892,0.94613 1.48648,0 z"
         inkscape:connector-curvature="0"
         style="fill:#3f3d56" />
      <circle
         id="circle4623"
         r="9.4144001"
         cy="248.36795"
         cx="158.28494"
         style="fill:#ae0d45" />
      <path
         id="path4625"
         transform="translate(-229.66231,-213.02572)"
         d="m 370.19134,517.1521 a 79.17409,79.17409 0 0 1 6.55267,-24.98792 q 1.47889,-3.30372 3.25549,-6.462 a 0.48254,0.48254 0 0 0 -0.83269,-0.48673 80.26817,80.26817 0 0 0 -8.93181,24.64089 q -0.67059,3.62231 -1.008,7.29576 c -0.0572,0.6177 0.90755,0.6138 0.96435,0 z"
         inkscape:connector-curvature="0"
         style="fill:#3f3d56" />
      <circle
         id="circle4627"
         r="6.1075602"
         cy="268.11551"
         cx="152.67288"
         style="fill:#ae0d45" />
      <path
         id="path4629"
         transform="translate(-229.66231,-213.02572)"
         d="m 368.97418,516.57556 a 79.17415,79.17415 0 0 1 -10.2024,-23.73277 q -0.86592,-3.51453 -1.40763,-7.09749 a 0.48254,0.48254 0 0 0 -0.95593,0.12838 80.26861,80.26861 0 0 0 8.11306,24.92246 q 1.69919,3.26857 3.69253,6.37255 c 0.33485,0.5222 1.09311,-0.0742 0.76037,-0.59313 z"
         inkscape:connector-curvature="0"
         style="fill:#3f3d56" />
      <circle
         id="circle4631"
         r="6.1075602"
         cy="267.68677"
         cx="126.73823"
         style="fill:#ae0d45" />
      <path
         id="path4633"
         transform="translate(-229.66231,-213.02572)"
         d="m 350.22441,521.97927 v -12 a 4.50508,4.50508 0 0 1 4.5,-4.5 h 28 a 4.50508,4.50508 0 0 1 4.5,4.5 v 12 a 4.50508,4.50508 0 0 1 -4.5,4.5 h -28 a 4.50508,4.50508 0 0 1 -4.5,-4.5 z"
         inkscape:connector-curvature="0"
         style="fill:#cccccc" />
      <rect
         id="rect4635"
         rx="3.5"
         height="7"
         width="86"
         y="305.48227"
         x="289.06998"
         style="fill:#cccccc" />
      <path
         id="path4637"
         transform="translate(-229.66231,-213.02572)"
         d="m 654.23228,525.508 h -89 a 6.50736,6.50736 0 0 1 -6.5,-6.5 v -49 a 6.50737,6.50737 0 0 1 6.5,-6.5 h 89 a 6.50737,6.50737 0 0 1 6.5,6.5 v 49 a 6.50736,6.50736 0 0 1 -6.5,6.5 z"
         inkscape:connector-curvature="0"
         style="fill:#cccccc" />
      <circle
         id="circle4639"
         r="6"
         cy="281.48227"
         cx="380.06998"
         style="fill:#ffffff" />
      <path
         id="path4641"
         transform="translate(-229.66231,-213.02572)"
         d="m 880.73228,591.508 c 0,-7.732 -29.10156,-14 -65,-14 -35.89844,0 -65,6.268 -65,14 0,4.95545 11.96436,9.30622 30,11.79432 V 680.008 a 6.5,6.5 0 0 0 13,0 v -75.324 c 6.87207,0.53241 14.27686,0.824 22,0.824 7.72314,0 15.12793,-0.29162 22,-0.824 v 75.324 a 6.5,6.5 0 0 0 13,0 v -76.70568 c 18.03565,-2.4881 30,-6.83887 30,-11.79432 z"
         inkscape:connector-curvature="0"
         style="fill:#cccccc" />
      <circle
         id="circle4643"
         r="28"
         cy="222.33974"
         cx="593.25732"
         style="fill:#2f2e41" />
      <polygon
         id="polygon4645"
         points="523.577,461.906 511.317,461.906 505.485,414.618 523.579,414.618 "
         style="fill:#ffb8b8" />
      <path
         id="path4647"
         d="m 502.56,458.40253 h 23.64387 v 14.88687 h -38.53078 v 0 A 14.88686,14.88686 0 0 1 502.56,458.40253 Z"
         inkscape:connector-curvature="0"
         style="fill:#2f2e41" />
      <polygon
         id="polygon4649"
         points="504.439,455.064 492.742,451.393 501.334,404.528 518.598,409.945 "
         style="fill:#ffb8b8" />
      <path
         id="path4651"
         transform="rotate(17.42262,1297.3626,-189.08093)"
         d="m 712.66827,659.42388 h 23.64387 v 14.88687 h -38.53073 v 0 a 14.88686,14.88686 0 0 1 14.88686,-14.88687 z"
         inkscape:connector-curvature="0"
         style="fill:#2f2e41" />
      <path
         id="path4653"
         transform="translate(-229.66231,-213.02572)"
         d="m 738.09007,649.22191 a 4.46224,4.46224 0 0 1 -1.572,-0.28613 l -9.01929,-3.38184 a 4.51573,4.51573 0 0 1 -2.814,-5.18359 c 2.27075,-10.21 10.00976,-44.9707 14.24731,-63.61524 5.02588,-22.11523 78.34278,-26.22461 81.46118,-26.38867 l 0.25635,-0.0137 8.24758,10.36423 c 2.98022,9.5791 2.03564,17.05078 -2.80762,22.208 -14.13232,15.04687 -56.32739,5.71 -61.35888,4.52832 l -22.42725,58.87109 a 4.51293,4.51293 0 0 1 -4.21338,2.8975 z"
         inkscape:connector-curvature="0"
         style="fill:#2f2e41" />
      <path
         id="path4655"
         transform="translate(-229.66231,-213.02572)"
         d="m 751.09007,656.22191 a 4.46224,4.46224 0 0 1 -1.572,-0.28613 l -9.01929,-3.38184 a 4.51573,4.51573 0 0 1 -2.814,-5.18359 c 2.27075,-10.21 10.00976,-44.9707 14.24731,-63.61524 5.02588,-22.11523 78.34278,-26.22461 81.46118,-26.38867 l 0.25635,-0.0137 8.24758,10.36423 c 2.98022,9.5791 2.03564,17.05078 -2.80762,22.208 -14.13232,15.04589 -56.32715,5.71 -61.35888,4.52832 l -22.42725,58.87109 a 4.51293,4.51293 0 0 1 -4.21338,2.8975 z"
         inkscape:connector-curvature="0"
         style="fill:#2f2e41" />
      <path
         id="path4657"
         transform="translate(-229.66231,-213.02572)"
         d="m 724.99531,512.20192 a 10.52563,10.52563 0 0 1 0.88489,1.40152 l 49.32026,5.19623 7.09959,-9.734 16.09071,8.79449 -13.94447,23.62125 -60.48739,-15.4225 a 10.4958,10.4958 0 1 1 1.03641,-13.857 z"
         inkscape:connector-curvature="0"
         style="fill:#ffb8b8" />
      <path
         id="path4659"
         transform="translate(-229.66231,-213.02572)"
         d="m 839.60838,571.68383 a 4.50062,4.50062 0 0 1 -2.04956,-0.501 c -9.8623,-5.01465 -29.06641,-13.69922 -46.87451,-15.5166 a 4.39229,4.39229 0 0 1 -3.09546,-1.75 4.51858,4.51858 0 0 1 -0.83374,-3.51075 c 1.60693,-8.8955 5.29321,-31.54687 4.81836,-49.70117 a 24.59626,24.59626 0 0 1 18.582,-24.46777 v 0 a 79.86445,79.86445 0 0 1 9.91284,-1.9541 24.79544,24.79544 0 0 1 27.55933,28.76172 c -3.17578,18.81347 -6.3772,45.08984 -3.59473,63.43261 a 4.50694,4.50694 0 0 1 -1.8186,4.34864 4.42884,4.42884 0 0 1 -2.60593,0.85842 z"
         inkscape:connector-curvature="0"
         style="fill:#ae0d45" />
      <path
         id="path4661"
         transform="translate(-229.66231,-213.02572)"
         d="m 792.48631,523.83226 a 4.49628,4.49628 0 0 1 -1.78662,-0.373 l -12.8479,-5.56153 a 4.50569,4.50569 0 0 1 -2.342,-5.917 l 9.93164,-22.94238 a 11.49973,11.49973 0 1 1 21.10718,9.13574 l -9.9314,22.94238 a 4.51063,4.51063 0 0 1 -4.13086,2.71582 z"
         inkscape:connector-curvature="0"
         style="fill:#ae0d45" />
      <circle
         id="circle4663"
         r="24.561029"
         cy="228.89093"
         cx="592.2337"
         style="fill:#ffb8b8" />
      <path
         id="path4665"
         transform="translate(-229.66231,-213.02572)"
         d="m 796.89293,429.84957 a 88.59059,88.59059 0 0 0 38.32618,12.62843 l -4.03992,-4.84061 a 29.68817,29.68817 0 0 0 9.17074,1.82105 c 3.13021,-0.0487 6.40987,-1.254 8.18642,-3.83171 a 9.342,9.342 0 0 0 0.62531,-8.62974 17.694,17.694 0 0 0 -5.56636,-6.96014 33.13951,33.13951 0 0 0 -30.84447,-5.51248 19.80609,19.80609 0 0 0 -9.21238,5.90943 c -2.32838,2.87238 -6.81094,5.43156 -5.61879,8.93167 z"
         inkscape:connector-curvature="0"
         style="fill:#2f2e41" />
      <path
         id="path4667"
         transform="translate(-229.66231,-213.02572)"
         d="m 826.02581,410.0287 a 75.48471,75.48471 0 0 0 -27.463,-17.7592 c -6.63872,-2.45941 -13.86459,-3.97895 -20.80509,-2.58225 -6.9405,1.3967 -13.50411,6.19807 -15.44041,13.00778 -1.58332,5.56836 0.0516,11.56379 2.50871,16.80555 2.45713,5.24176 5.73758,10.10247 7.72463,15.53985 a 35.46793,35.46793 0 0 1 -35.689,47.56227 c 6.81938,0.91437 13.10515,4.119 19.77076,5.82483 6.66561,1.70583 14.53281,1.59011 19.48624,-3.18519 5.24091,-5.05244 5.34584,-13.26718 5.09245,-20.54249 l -1.13,-32.445 c -0.1921,-5.51543 -0.35615,-11.20763 1.63288,-16.35551 1.98903,-5.14788 6.71617,-9.65569 12.23475,-9.60885 4.18253,0.0355 7.88442,2.56926 11.23865,5.068 3.35423,2.49874 6.90446,5.16474 11.0706,5.53641 4.16614,0.37167 8.92293,-2.71144 8.61118,-6.88249"
         inkscape:connector-curvature="0"
         style="fill:#2f2e41" />
      <polygon
         id="polygon4669"
         points="482.197,281.087 538.75,282.422 546.943,342.878 494.716,344.05 "
         style="fill:#e6e6e6" />
      <path
         id="path4671"
         transform="translate(-229.66231,-213.02572)"
         d="m 771.99531,510.20192 a 10.52563,10.52563 0 0 1 0.88489,1.40152 l 49.32026,5.19623 7.09959,-9.734 16.09071,8.79449 -13.94447,23.62125 -60.48739,-15.4225 a 10.4958,10.4958 0 1 1 1.03641,-13.857 z"
         inkscape:connector-curvature="0"
         style="fill:#ffb8b8" />
      <path
         id="path4673"
         transform="translate(-229.66231,-213.02572)"
         d="m 839.48631,524.83226 a 4.49628,4.49628 0 0 1 -1.78662,-0.373 l -12.8479,-5.56153 a 4.50569,4.50569 0 0 1 -2.342,-5.917 l 9.93164,-22.94238 a 11.49973,11.49973 0 1 1 21.10718,9.13574 l -9.9314,22.94238 a 4.51063,4.51063 0 0 1 -4.13086,2.71582 z"
         inkscape:connector-curvature="0"
         style="fill:#ae0d45" />
      <path
         id="path4675"
         transform="translate(-229.66231,-213.02572)"
         d="m 723.23228,524.508 h -398 a 6.5,6.5 0 1 0 0,13 h 11.5 v 141.5 a 6.5,6.5 0 0 0 13,0 V 549.99806 l 72.8711,132.07788 a 6.5,6.5 0 0 0 11.2583,-6.5 L 357.6859,537.508 h 348.04638 v 0.0842 l -76.1289,137.98377 a 6.4997747,6.4997747 0 1 0 11.25781,6.5 L 705.73228,564.49781 V 679.008 a 6.5,6.5 0 0 0 13,0 V 540.93537 l 1.89112,-3.42737 h 2.60888 a 6.5,6.5 0 0 0 0,-13 z"
         inkscape:connector-curvature="0"
         style="fill:#3f3d56" />
      <path
         id="path4677"
         transform="translate(-229.66231,-213.02572)"
         d="M 969.147,686.97428 H 230.853 a 1.19069,1.19069 0 0 1 0,-2.38137 h 738.294 a 1.190685,1.190685 0 0 1 0,2.38137 z"
         inkscape:connector-curvature="0"
         style="fill:#3f3d56" />
    </g>
    <g
       id="g4856"
       transform="matrix(0.00485088,0,0,0.00485088,6.9114293,0.24862857)">
      <path
         id="path4780"
         transform="translate(-216,-85.571)"
         d="m 682.88391,258.51823 h -3.99878 V 148.9729 A 63.40187,63.40187 0 0 0 615.48334,85.571 H 383.39661 a 63.40184,63.40184 0 0 0 -63.402,63.40171 V 749.94712 A 63.40181,63.40181 0 0 0 383.39642,813.349 H 615.483 a 63.40185,63.40185 0 0 0 63.402,-63.40167 V 336.49449 h 3.99884 z"
         inkscape:connector-curvature="0"
         style="fill:#3f3d56" />
      <path
         id="path4782"
         transform="translate(-216,-85.571)"
         d="m 618.04138,102.066 h -30.295 a 22.49486,22.49486 0 0 1 -20.82715,30.99052 H 433.95978 A 22.4948,22.4948 0 0 1 413.13263,102.066 H 384.837 a 47.34781,47.34781 0 0 0 -47.34784,47.34774 v 600.09253 a 47.34781,47.34781 0 0 0 47.34784,47.34784 h 233.2044 a 47.34781,47.34781 0 0 0 47.34784,-47.34778 v 0 -600.09262 a 47.34777,47.34777 0 0 0 -47.34784,-47.3477 z"
         inkscape:connector-curvature="0"
         style="fill:#ffffff" />
      <rect
         id="rect4784"
         height="231.65729"
         width="135.60425"
         y="128.24738"
         x="149.43143"
         style="fill:#e6e6e6" />
      <rect
         id="rect4786"
         height="262.26761"
         width="112.70621"
         y="378.05048"
         x="308.33337"
         style="fill:#e6e6e6" />
      <rect
         id="rect4788"
         height="63.7663"
         width="113.00354"
         y="128.24738"
         x="308.44357"
         style="fill:#e6e6e6" />
      <rect
         id="rect4790"
         height="68.609283"
         width="113.00354"
         y="209.77138"
         x="308.44357"
         style="fill:#ae0d45" />
      <rect
         id="rect4792"
         height="63.7663"
         width="113.00354"
         y="296.13837"
         x="308.44357"
         style="fill:#e6e6e6" />
      <rect
         id="rect4794"
         height="100.95499"
         width="135.60425"
         y="378.05048"
         x="149.59921"
         style="fill:#e6e6e6" />
      <rect
         id="rect4796"
         height="141.95499"
         width="135.60425"
         y="498.57562"
         x="149.59921"
         style="fill:#e6e6e6" />
      <path
         id="path4798"
         transform="translate(-216,-85.571)"
         d="m 809.22124,373.55053 c 0,22.04505 -20.38417,18.71067 -45.52931,18.71067 -25.14514,0 -45.5293,3.33438 -45.5293,-18.71067 0,-22.04505 9.95715,-61.12153 45.5293,-61.12153 36.79766,0 45.52931,39.07647 45.52931,61.12153 z"
         inkscape:connector-curvature="0"
         style="fill:#2f2e41" />
      <path
         id="path4800"
         transform="translate(-216,-85.571)"
         d="m 635.22131,333.46045 a 12.54331,12.54331 0 0 0 7.7483,17.604 l 2.2944,44.51578 18.6553,-13.73043 -5.03886,-40.16792 a 12.61133,12.61133 0 0 0 -23.65914,-8.22141 z"
         inkscape:connector-curvature="0"
         style="fill:#ffb8b8" />
      <path
         id="path4802"
         transform="translate(-216,-85.571)"
         d="m 839.73187,585.0357 a 12.54337,12.54337 0 0 0 -5.47911,-18.43681 l 3.30718,-44.452 -20.23013,11.28211 -0.0391,40.48272 a 12.61133,12.61133 0 0 0 22.44112,11.124 z"
         inkscape:connector-curvature="0"
         style="fill:#ffb8b8" />
      <polygon
         id="polygon4804"
         points="545.859,713.445 553.134,654.459 530.564,654.46 530.567,713.445 "
         style="fill:#ffb8b8" />
      <path
         id="path4806"
         transform="translate(-216,-85.571)"
         d="m 742.66591,794.02351 30.11644,-10e-4 h 0.001 a 19.19222,19.19222 0 0 1 19.19275,19.19245 v 0.62369 l -49.3095,0.002 z"
         inkscape:connector-curvature="0"
         style="fill:#2f2e41" />
      <polygon
         id="polygon4808"
         points="643.155,713.445 650.43,654.459 627.86,654.46 627.862,713.445 "
         style="fill:#ffb8b8" />
      <path
         id="path4810"
         transform="translate(-216,-85.571)"
         d="m 839.9614,794.02351 30.11645,-10e-4 h 10e-4 a 19.19222,19.19222 0 0 1 19.19275,19.19245 v 0.62369 l -49.3095,0.002 z"
         inkscape:connector-curvature="0"
         style="fill:#2f2e41" />
      <path
         id="path4812"
         transform="translate(-216,-85.571)"
         d="m 835.13368,560.54394 -0.6645,-0.1206 c -5.57026,-1.00862 -11.20813,-2.02821 -16.16506,-3.09408 l -0.4906,-0.106 -0.002,-0.50187 c -0.085,-22.61 -0.17024,-45.21624 -0.2954,-68.02719 a 143.79,143.79 0 0 1 -14.37683,-77.07433 l 0.028,-0.28017 0.22993,-0.16445 a 14.78633,14.78633 0 0 1 14.90154,-1.15236 16.52117,16.52117 0 0 1 8.481,12.542 c 4.50774,24.5675 9.17444,50.00841 14.37926,75.07779 l 0.0192,0.0914 -0.009,0.0938 c -1.92832,20.44531 -3.92212,41.58739 -5.9686,62.04366 z"
         inkscape:connector-curvature="0"
         style="fill:#ae0d45" />
      <path
         id="path4814"
         transform="translate(-216,-85.571)"
         d="m 825.1644,777.99339 -0.12151,-0.575 c -7.15415,-33.84 -14.06011,-61.39683 -20.73888,-88.04614 -8.0035,-31.93727 -15.588,-62.2008 -23.24491,-101.36409 1.05157,49.38716 3.49394,84.86922 6.30146,125.65386 1.26778,18.41588 2.5785,37.45911 3.90841,59.69021 l 0.0408,0.67851 -0.67912,-0.0171 c -23.93407,-0.61272 -48.45559,-2.09155 -72.17009,-3.52043 l -0.62734,-0.0378 0.0426,-0.62734 c 4.48977,-66.178 5.89672,-109.18092 6.92392,-140.581 2.16738,-66.24626 2.50054,-76.42871 27.17707,-132.49373 0.93523,-2.12688 6.51584,-8.41128 12.65133,-7.45382 l 48.5506,7.55614 0.085,0.42757 c 1.37041,6.90078 8.16887,27.84065 17.57841,56.8227 20.11519,61.956 50.51334,155.58485 60.00967,211.39528 l 0.10751,0.63222 -0.63466,0.0901 c -13.793,1.96 -23.72,4.0016 -33.32016,5.975 -9.08308,1.86863 -18.475,3.79939 -31.25937,5.707 z"
         inkscape:connector-curvature="0"
         style="fill:#2f2e41" />
      <path
         id="path4816"
         transform="translate(-216,-85.571)"
         d="m 782.96763,514.369 c -12.9583,10e-4 -25.76646,-4.49495 -34.94821,-13.24974 a 10.36322,10.36322 0 0 1 -5.11255,-8.05436 10.50795,10.50795 0 0 1 2.46826,-8.52578 c -9.00207,-10.89629 -18.2965,-22.158 -27.19351,-33.62561 l -0.24576,-0.31672 0.28474,-0.54329 c 5.8209,-11.12165 11.84,-22.62091 17.62044,-33.98375 a 5.93781,5.93781 0 0 1 4.84211,-3.66661 6.90339,6.90339 0 0 1 5.3309,1.19134 l 0.0116,-0.27651 c 0.2415,-5.75207 0.4833,-11.50414 0.7315,-16.95655 l 0.0265,-0.58227 0.58288,-0.0134 c 11.11434,-0.24485 22.60691,-0.49944 33.89574,-1.1682 l 0.4297,-0.0256 5.59889,12.48961 a 45.79477,45.79477 0 0 1 26.27412,5.333 l 0.36971,0.19734 -0.0429,0.41661 a 254.28717,254.28717 0 0 0 1.4575,64.4702 c -0.1748,9.74393 -0.3627,19.70346 -2.33974,27.6421 l -0.0576,0.23145 -0.19795,0.134 a 53.2643,53.2643 0 0 1 -29.78633,8.88272 z"
         inkscape:connector-curvature="0"
         style="fill:#ae0d45" />
      <path
         id="path4818"
         transform="translate(-216,-85.571)"
         d="m 735.27,460.18359 -0.74581,-0.3423 c -8.707,-4.36826 -17.44137,-9.214 -25.888,-13.90022 l -1.167,-0.2278 c -22.23993,-4.46449 -34.4908,-6.9227 -54.55513,-18.68874 l -0.1541,-0.0914 -0.0828,-0.15836 c -10.04663,-19.19184 -12.849,-35.9681 -10.3399,-61.89749 l 0.0503,-0.52015 0.52015,-0.0414 c 2.175,-0.17663 5.72009,-0.29479 9.14825,-0.4093 3.33527,-0.11085 6.78414,-0.22657 8.89853,-0.39224 l 0.49061,-0.039 0.15166,0.46776 c 2.62905,8.11893 4.86252,15.69334 7.22724,23.71237 2.4305,8.24317 4.94261,16.76286 8.00259,26.229 11.20356,3.21955 41.23778,2.25722 50.57637,0.98548 5.38906,-0.553 10.83325,1.93806 14.59031,6.634 l 0.17328,0.21683 -0.0448,0.27409 c -2.05592,12.54687 -4.41668,25.168 -6.69948,37.37383 z"
         inkscape:connector-curvature="0"
         style="fill:#ae0d45" />
      <circle
         id="circle4820"
         transform="rotate(-61.33679,582.98253,499.74482)"
         r="30.636881"
         cy="360.40884"
         cx="763.13208"
         style="fill:#ffb8b8" />
      <path
         id="path4822"
         transform="translate(-216,-85.571)"
         d="m 728.14165,358.582 v 0 h 12.11748 l 5.34582,-14.96854 1.06892,14.96854 h 5.79166 l 3.11844,-8.73165 0.62369,8.73165 h 43.03455 v 0 a 32.4318,32.4318 0 0 0 -32.4318,-32.4318 h -6.237 a 32.4318,32.4318 0 0 0 -32.43176,32.4318 z"
         inkscape:connector-curvature="0"
         style="fill:#2f2e41" />
      <path
         id="path4824"
         transform="translate(-216,-85.571)"
         d="M 983,814.429 H 217 a 1,1 0 0 1 0,-2 h 766 a 1,1 0 0 1 0,2 z"
         inkscape:connector-curvature="0"
         style="fill:#3f3d56" />
    </g>
    <flowRoot
       xml:space="preserve"
       id="flowRoot4858"
       style="font-style:normal;font-weight:normal;font-size:40px;line-height:1.25;font-family:sans-serif;letter-spacing:0px;word-spacing:0px;fill:#000000;fill-opacity:1;stroke:none"
       transform="matrix(0.01041667,0,0,0.01041667,-0.8426699,0.3346024)"><flowRegion
         id="flowRegion4860"><rect
           id="rect4862"
           width="614.633"
           height="307.19498"
           x="122.22845"
           y="27.070862" /></flowRegion><flowPara
         id="flowPara4872"
         style="font-weight:bold;font-size:74.66664124px">60%</flowPara><flowPara
         style="font-weight:normal"
         id="flowPara4878">report that social media has negatively impacted self-esteem</flowPara></flowRoot>    <flowRoot
       xml:space="preserve"
       id="flowRoot4884"
       style="fill:black;fill-opacity:1;stroke:none;font-family:sans-serif;font-style:normal;font-weight:normal;font-size:40px;line-height:1.25;letter-spacing:0px;word-spacing:0px"><flowRegion
         id="flowRegion4886"><rect
           id="rect4888"
           width="468.57144"
           height="331.42856"
           x="555.71429"
           y="450.28571" /></flowRegion><flowPara
         id="flowPara4890"></flowPara></flowRoot>    <flowRoot
       xml:space="preserve"
       id="flowRoot4892"
       style="font-style:normal;font-weight:normal;font-size:40px;line-height:1.25;font-family:sans-serif;letter-spacing:0px;word-spacing:0px;fill:#000000;fill-opacity:1;stroke:none"
       transform="matrix(0.01041667,0,0,0.01041667,-0.2827381,0.17857142)"><flowRegion
         id="flowRegion4894"><rect
           id="rect4896"
           width="495.71426"
           height="299.99997"
           x="571.42859"
           y="473.14285" /></flowRegion><flowPara
         id="flowPara4898">Physical health impacts include eyestrain and musculoskeletal issues from posture</flowPara></flowRoot>  </g>
</svg>
